<svg id="Layer_1" height="512" viewBox="0 0 75 75" width="512" xmlns="http://www.w3.org/2000/svg" data-name="Layer 1"><path d="m58.652 53.985h-42.3a3.547 3.547 0 0 1 -3.6-3.485v-30.847a3.547 3.547 0 0 1 3.6-3.486h42.3a3.547 3.547 0 0 1 3.6 3.486v30.847a3.547 3.547 0 0 1 -3.6 3.485zm-42.3-36.318a2.047 2.047 0 0 0 -2.1 1.986v30.847a2.046 2.046 0 0 0 2.1 1.985h42.3a2.046 2.046 0 0 0 2.1-1.985v-30.847a2.047 2.047 0 0 0 -2.1-1.986z"/><path d="m61.5 47.363h-48a.75.75 0 0 1 0-1.5h48a.75.75 0 0 1 0 1.5z"/><path d="m44.515 58.833h-14.03a.75.75 0 0 1 -.719-.96l1.411-4.848a.749.749 0 0 1 .719-.54h11.204a.749.749 0 0 1 .719.54l1.411 4.848a.75.75 0 0 1 -.719.96zm-13.031-1.5h12.032l-.975-3.348h-10.082z"/><path d="m47.265 58.833h-19.53a.75.75 0 0 1 0-1.5h19.53a.75.75 0 0 1 0 1.5z"/><path d="m38.417 50.291h-1.834a.75.75 0 0 1 0-1.5h1.834a.75.75 0 0 1 0 1.5z"/><path d="m30.839 34.661a3.324 3.324 0 1 1 3.323-3.324 3.328 3.328 0 0 1 -3.323 3.324zm0-5.147a1.824 1.824 0 1 0 1.823 1.823 1.826 1.826 0 0 0 -1.823-1.823z"/><path d="m44.161 29.012a3.324 3.324 0 1 1 3.324-3.324 3.327 3.327 0 0 1 -3.324 3.324zm0-5.147a1.824 1.824 0 1 0 1.824 1.823 1.826 1.826 0 0 0 -1.824-1.823z"/><path d="m44.161 40.31a3.324 3.324 0 1 1 3.324-3.324 3.328 3.328 0 0 1 -3.324 3.324zm0-5.147a1.824 1.824 0 1 0 1.824 1.823 1.825 1.825 0 0 0 -1.824-1.823z"/><path d="m33.412 30.958a.75.75 0 0 1 -.311-1.433l8.3-3.784a.75.75 0 1 1 .624 1.365l-8.3 3.785a.753.753 0 0 1 -.313.067z"/><path d="m41.708 37a.772.772 0 0 1 -.312-.067l-8.3-3.785a.75.75 0 1 1 .623-1.365l8.3 3.784a.75.75 0 0 1 -.311 1.433z"/></svg>